<?xml version="1.0" encoding="UTF-8"?>
<svg width="200" height="200" viewBox="0 0 200 200" fill="none" xmlns="http://www.w3.org/2000/svg">
  <rect width="200" height="200" fill="#F3F4F6"/>
  <path d="M100 70C83.4315 70 70 83.4315 70 100C70 116.569 83.4315 130 100 130C116.569 130 130 116.569 130 100C130 83.4315 116.569 70 100 70ZM100 120C88.9543 120 80 111.046 80 100C80 88.9543 88.9543 80 100 80C111.046 80 120 88.9543 120 100C120 111.046 111.046 120 100 120Z" fill="#9CA3AF"/>
  <path d="M100 85C91.7157 85 85 91.7157 85 100C85 108.284 91.7157 115 100 115C108.284 115 115 108.284 115 100C115 91.7157 108.284 85 100 85Z" fill="#9CA3AF"/>
</svg> 